<svg xmlns="http://www.w3.org/2000/svg" viewBox="0 0 16 16" shape-rendering="crispEdges">
  <rect width="16" height="16" fill="#d0eef8"/>
  <!-- Haar -->
  <rect x="4" y="1" width="8" height="2" fill="#5b4632"/>
  <rect x="3" y="2" width="10" height="2" fill="#5b4632"/>
  <rect x="3" y="4" width="2" height="2" fill="#5b4632"/>
  <rect x="11" y="4" width="2" height="2" fill="#5b4632"/>
  <!-- Gesicht -->
  <rect x="5" y="3" width="6" height="6" fill="#e8b88a"/>
  <rect x="4" y="4" width="1" height="4" fill="#e8b88a"/>
  <rect x="11" y="4" width="1" height="4" fill="#e8b88a"/>
  <!-- Augen -->
  <rect x="6" y="5" width="1" height="1" fill="#281e3c"/>
  <rect x="9" y="5" width="1" height="1" fill="#281e3c"/>
  <!-- Mund -->
  <rect x="7" y="7" width="2" height="1" fill="#b5651d"/>
  <!-- Bart-Schatten -->
  <rect x="5" y="8" width="6" height="1" fill="#d8a878"/>
  <!-- Hals -->
  <rect x="7" y="9" width="2" height="1" fill="#e8b88a"/>
  <!-- Pullover -->
  <rect x="4" y="10" width="8" height="6" fill="#4a8c30"/>
  <rect x="3" y="11" width="1" height="5" fill="#4a8c30"/>
  <rect x="12" y="11" width="1" height="5" fill="#4a8c30"/>
  <rect x="6" y="10" width="4" height="1" fill="#33691e"/>
</svg>
